<svg xmlns="http://www.w3.org/2000/svg" viewBox="0 0 1024 1024" width="1024" height="1024"><rect width="1024" height="1024" fill="#fbf7ef"/><circle cx="512" cy="470" r="400" fill="#fbe0d8"/><circle cx="200" cy="200" r="6" fill="#fff" opacity=".7"/><circle cx="830" cy="210" r="5" fill="#fff" opacity=".7"/><circle cx="860" cy="630" r="6" fill="#fff" opacity=".7"/><circle cx="160" cy="650" r="4" fill="#fff" opacity=".7"/><circle cx="700" cy="810" r="5" fill="#fff" opacity=".7"/><path d="M200 186 l4 10 l10 4 l-10 4 l-4 10 l-4 -10 l-10 -4 l10 -4z" fill="#fff" opacity=".9"/><path d="M830 196 l4 10 l10 4 l-10 4 l-4 10 l-4 -10 l-10 -4 l10 -4z" fill="#fff" opacity=".9"/><path d="M860 616 l4 10 l10 4 l-10 4 l-4 10 l-4 -10 l-10 -4 l10 -4z" fill="#fff" opacity=".9"/><ellipse cx="512" cy="880" rx="230" ry="26" fill="#000" opacity=".12"/><path d="M420 720 q92 -40 184 0 q20 80 -92 110 q-112 -30 -92 -110z" fill="#f28c7e"/><path d="M600 780 q70 -50 110 10 q-50 0 -70 30 q-10 -30 -40 -40z" fill="#f28c7e" stroke="#1f2a33" stroke-width="5"/><circle cx="512" cy="460" r="248" fill="#f6a094"/><path d="M330 520 q50 170 182 170 q132 0 182 -170 q-70 -60 -182 -60 q-112 0 -182 60z" fill="#fde3d6"/><path d="M512 212 q-30 -70 0 -110 q30 40 0 110z" fill="#e0776b"/><circle cx="360" cy="320" r="10" fill="#e0776b"/><circle cx="420" cy="280" r="10" fill="#e0776b"/><circle cx="600" cy="280" r="10" fill="#e0776b"/><circle cx="660" cy="320" r="10" fill="#e0776b"/><circle cx="512" cy="250" r="10" fill="#e0776b"/><ellipse cx="407" cy="460" rx="62" ry="71" fill="#fff" stroke="#1f2a33" stroke-width="8"/><ellipse cx="407" cy="470" rx="38" ry="48" fill="#c2513f"/><ellipse cx="407" cy="480" rx="26" ry="31" fill="#1f2a33"/><circle cx="392" cy="446" r="16" fill="#fff"/><circle cx="426" cy="484" r="7" fill="#fff"/><ellipse cx="617" cy="460" rx="62" ry="71" fill="#fff" stroke="#1f2a33" stroke-width="8"/><ellipse cx="617" cy="470" rx="38" ry="48" fill="#c2513f"/><ellipse cx="617" cy="480" rx="26" ry="31" fill="#1f2a33"/><circle cx="602" cy="446" r="16" fill="#fff"/><circle cx="636" cy="484" r="7" fill="#fff"/><ellipse cx="367" cy="550" rx="34" ry="18" fill="#f4a1a8" opacity=".8"/><ellipse cx="657" cy="550" rx="34" ry="18" fill="#f4a1a8" opacity=".8"/><ellipse cx="512" cy="605" rx="40" ry="22" fill="#e07a7a" stroke="#1f2a33" stroke-width="7"/><path d="M482 605 q30 -18 60 0" fill="none" stroke="#1f2a33" stroke-width="5"/><circle cx="640" cy="590" r="7" fill="#1f2a33"/><circle cx="656" cy="604" r="4" fill="#1f2a33"/><g transform="rotate(20 700 640)"><rect x="690" y="500" width="22" height="200" rx="8" fill="#8a5a32" stroke="#1f2a33" stroke-width="5"/><path d="M690 700 q11 50 22 0 q-11 60 -11 80 q0 -20 -11 -80z" fill="#1f2a33"/></g><rect x="290" y="620" width="120" height="150" rx="10" fill="#fbf7ef" stroke="#1f2a33" stroke-width="6"/><rect x="280" y="610" width="140" height="22" rx="11" fill="#c9a06a" stroke="#1f2a33" stroke-width="5"/><rect x="280" y="760" width="140" height="22" rx="11" fill="#c9a06a" stroke="#1f2a33" stroke-width="5"/><path d="M320 660 h60 M320 690 h60 M320 720 h40" stroke="#1f2a33" stroke-width="6" stroke-linecap="round"/><text x="512" y="940" text-anchor="middle" font-family="Hiragino Sans, Hiragino Kaku Gothic ProN, Noto Sans JP, sans-serif" font-size="64" font-weight="700" fill="#1f2a33">サーモン</text><text x="512" y="998" text-anchor="middle" font-family="Futura, Avenir Next, Helvetica Neue, sans-serif" font-size="30" letter-spacing="6" fill="#1f2a33" opacity=".8">SALMON · scribe</text></svg>