<svg xmlns="http://www.w3.org/2000/svg" viewBox="0 0 1024 1024" width="1024" height="1024"><rect width="1024" height="1024" fill="#fbf7ef"/><circle cx="512" cy="470" r="400" fill="#cfe6e4"/><circle cx="180" cy="200" r="6" fill="#fff" opacity=".7"/><circle cx="840" cy="180" r="5" fill="#fff" opacity=".7"/><circle cx="860" cy="640" r="7" fill="#fff" opacity=".7"/><circle cx="150" cy="620" r="4" fill="#fff" opacity=".7"/><circle cx="700" cy="800" r="5" fill="#fff" opacity=".7"/><path d="M180 186 l4 10 l10 4 l-10 4 l-4 10 l-4 -10 l-10 -4 l10 -4z" fill="#fff" opacity=".9"/><path d="M840 166 l4 10 l10 4 l-10 4 l-4 10 l-4 -10 l-10 -4 l10 -4z" fill="#fff" opacity=".9"/><path d="M860 626 l4 10 l10 4 l-10 4 l-4 10 l-4 -10 l-10 -4 l10 -4z" fill="#fff" opacity=".9"/><ellipse cx="512" cy="880" rx="230" ry="26" fill="#000" opacity=".12"/><path d="M420 700 q92 -60 184 0 q30 100 -92 130 q-122 -30 -92 -130z" fill="#1f2a33"/><path d="M470 760 q42 -30 84 0 q0 60 -42 62 q-42 -2 -42 -62z" fill="#fff"/><path d="M600 780 q60 -20 80 20 q-30 6 -50 -4 q-6 24 -30 26z" fill="#1f2a33"/><circle cx="512" cy="470" r="250" fill="#1f2a33"/><path d="M512 240 q-40 -110 -20 -160 q70 60 80 160z" fill="#1f2a33"/><path d="M300 520 q60 190 212 190 q152 0 212 -190 q-60 -60 -212 -60 q-152 0 -212 60z" fill="#fff"/><ellipse cx="392" cy="360" rx="56" ry="70" fill="#fff" transform="rotate(-20 392 360)"/><ellipse cx="632" cy="360" rx="56" ry="70" fill="#fff" transform="rotate(20 632 360)"/><ellipse cx="402" cy="470" rx="62" ry="71" fill="#fff" stroke="#1f2a33" stroke-width="8"/><ellipse cx="408" cy="478" rx="38" ry="48" fill="#2f5f8f"/><ellipse cx="408" cy="488" rx="26" ry="31" fill="#1f2a33"/><circle cx="392" cy="454" r="16" fill="#fff"/><circle cx="427" cy="492" r="7" fill="#fff"/><ellipse cx="622" cy="470" rx="62" ry="71" fill="#fff" stroke="#1f2a33" stroke-width="8"/><ellipse cx="628" cy="478" rx="38" ry="48" fill="#2f5f8f"/><ellipse cx="628" cy="488" rx="26" ry="31" fill="#1f2a33"/><circle cx="612" cy="454" r="16" fill="#fff"/><circle cx="647" cy="492" r="7" fill="#fff"/><ellipse cx="362" cy="560" rx="34" ry="18" fill="#f4a1a8" opacity=".8"/><ellipse cx="662" cy="560" rx="34" ry="18" fill="#f4a1a8" opacity=".8"/><path d="M468 600 q44 40 88 0" fill="none" stroke="#1f2a33" stroke-width="9" stroke-linecap="round"/><path d="M270 440 q0 -220 242 -220 q242 0 242 220" fill="none" stroke="#3f6e6a" stroke-width="18" stroke-linecap="round"/><rect x="244" y="420" width="52" height="90" rx="20" fill="#3f6e6a"/><rect x="728" y="420" width="52" height="90" rx="20" fill="#3f6e6a"/><path d="M280 510 q-30 90 60 120" fill="none" stroke="#3f6e6a" stroke-width="14" stroke-linecap="round"/><circle cx="352" cy="636" r="16" fill="#d94a3d"/><g transform="translate(512 770) scale(.55)"><path d="M-40 -40 l80 80 M40 -40 l-80 80" stroke="#fbf7ef" stroke-width="14" stroke-linecap="round"/><circle cx="-40" cy="-40" r="16" fill="none" stroke="#fbf7ef" stroke-width="10"/><circle cx="40" cy="-40" r="16" fill="none" stroke="#fbf7ef" stroke-width="10"/></g><text x="512" y="940" text-anchor="middle" font-family="Hiragino Sans, Hiragino Kaku Gothic ProN, Noto Sans JP, sans-serif" font-size="64" font-weight="700" fill="#1f2a33">ワク</text><text x="512" y="998" text-anchor="middle" font-family="Futura, Avenir Next, Helvetica Neue, sans-serif" font-size="30" letter-spacing="6" fill="#1f2a33" opacity=".8">WAKU · orchestrator</text></svg>