<svg xmlns="http://www.w3.org/2000/svg" viewBox="0 0 1024 1024" width="1024" height="1024"><rect width="1024" height="1024" fill="#fbf7ef"/><circle cx="512" cy="470" r="400" fill="#cfe6e4"/><circle cx="190" cy="200" r="6" fill="#fff" opacity=".7"/><circle cx="840" cy="190" r="5" fill="#fff" opacity=".7"/><circle cx="860" cy="640" r="6" fill="#fff" opacity=".7"/><circle cx="160" cy="640" r="4" fill="#fff" opacity=".7"/><circle cx="690" cy="820" r="5" fill="#fff" opacity=".7"/><path d="M190 186 l4 10 l10 4 l-10 4 l-4 10 l-4 -10 l-10 -4 l10 -4z" fill="#fff" opacity=".9"/><path d="M840 176 l4 10 l10 4 l-10 4 l-4 10 l-4 -10 l-10 -4 l10 -4z" fill="#fff" opacity=".9"/><path d="M860 626 l4 10 l10 4 l-10 4 l-4 10 l-4 -10 l-10 -4 l10 -4z" fill="#fff" opacity=".9"/><ellipse cx="512" cy="880" rx="230" ry="26" fill="#000" opacity=".12"/><path d="M512 240 q-40 -110 -20 -160 q70 60 80 160z" fill="#4a5a66"/><ellipse cx="512" cy="705" rx="120" ry="90" fill="#4a5a66"/><path d="M428 690 q84 -30 168 0 q-6 60 -84 70 q-78 -10 -84 -70z" fill="#e8eef2"/><ellipse cx="380" cy="700" rx="70" ry="30" fill="#4a5a66" transform="rotate(-30 380 700)"/><ellipse cx="644" cy="700" rx="70" ry="30" fill="#4a5a66" transform="rotate(30 644 700)"/><circle cx="512" cy="455" r="245" fill="#4a5a66"/><path d="M300 520 q60 190 212 190 q152 0 212 -190 q-60 -60 -212 -60 q-152 0 -212 60z" fill="#e8eef2"/><ellipse cx="412" cy="455" rx="64" ry="74" fill="#fff" stroke="#1f2a33" stroke-width="8"/><ellipse cx="412" cy="463" rx="40" ry="50" fill="#2f5f8f"/><ellipse cx="412" cy="473" rx="27" ry="32" fill="#1f2a33"/><circle cx="396" cy="439" r="17" fill="#fff"/><circle cx="431" cy="477" r="8" fill="#fff"/><ellipse cx="612" cy="455" rx="64" ry="74" fill="#fff" stroke="#1f2a33" stroke-width="8"/><ellipse cx="612" cy="463" rx="40" ry="50" fill="#2f5f8f"/><ellipse cx="612" cy="473" rx="27" ry="32" fill="#1f2a33"/><circle cx="596" cy="439" r="17" fill="#fff"/><circle cx="631" cy="477" r="8" fill="#fff"/><ellipse cx="372" cy="545" rx="34" ry="18" fill="#f4a1a8" opacity=".8"/><ellipse cx="652" cy="545" rx="34" ry="18" fill="#f4a1a8" opacity=".8"/><path d="M472 590 q40 36 80 0" fill="none" stroke="#1f2a33" stroke-width="9" stroke-linecap="round"/><circle cx="330" cy="760" r="60" fill="#d94a3d" stroke="#1f2a33" stroke-width="6"/><path d="M270 760 h120 M330 700 v120" stroke="#fff" stroke-width="8"/><text x="512" y="940" text-anchor="middle" font-family="Hiragino Sans, Hiragino Kaku Gothic ProN, Noto Sans JP, sans-serif" font-size="64" font-weight="700" fill="#1f2a33">ミンク</text><text x="512" y="998" text-anchor="middle" font-family="Futura, Avenir Next, Helvetica Neue, sans-serif" font-size="30" letter-spacing="6" fill="#1f2a33" opacity=".8">MINKE · little cousin</text></svg>