<svg xmlns="http://www.w3.org/2000/svg" viewBox="0 0 1024 1024" width="1024" height="1024"><rect width="1024" height="1024" fill="#fbf7ef"/><circle cx="512" cy="470" r="400" fill="#efe6d3"/><circle cx="190" cy="200" r="6" fill="#fff" opacity=".7"/><circle cx="840" cy="190" r="5" fill="#fff" opacity=".7"/><circle cx="860" cy="640" r="6" fill="#fff" opacity=".7"/><circle cx="160" cy="640" r="4" fill="#fff" opacity=".7"/><circle cx="690" cy="820" r="5" fill="#fff" opacity=".7"/><path d="M190 186 l4 10 l10 4 l-10 4 l-4 10 l-4 -10 l-10 -4 l10 -4z" fill="#fff" opacity=".9"/><path d="M840 176 l4 10 l10 4 l-10 4 l-4 10 l-4 -10 l-10 -4 l10 -4z" fill="#fff" opacity=".9"/><path d="M860 626 l4 10 l10 4 l-10 4 l-4 10 l-4 -10 l-10 -4 l10 -4z" fill="#fff" opacity=".9"/><ellipse cx="512" cy="880" rx="230" ry="26" fill="#000" opacity=".12"/><ellipse cx="512" cy="705" rx="120" ry="90" fill="#b89a72"/><path d="M428 690 q84 -30 168 0 q-6 60 -84 70 q-78 -10 -84 -70z" fill="#f3ebdc"/><path d="M470 720 v70 M554 720 v70 M440 790 h60 M524 790 h60" fill="none" stroke="#e0a52a" stroke-width="12" stroke-linecap="round"/><circle cx="512" cy="455" r="245" fill="#b89a72"/><path d="M340 505 q50 160 172 160 q122 0 172 -160 q-60 -50 -172 -50 q-112 0 -172 50z" fill="#f3ebdc"/><path d="M482 550 l60 0 l-30 34z" fill="#4a4a4a" stroke="#1f2a33" stroke-width="6" stroke-linejoin="round"/><ellipse cx="412" cy="455" rx="66" ry="76" fill="#fff" stroke="#1f2a33" stroke-width="8"/><ellipse cx="412" cy="463" rx="41" ry="51" fill="#4a3a28"/><ellipse cx="412" cy="473" rx="28" ry="33" fill="#1f2a33"/><circle cx="396" cy="438" r="17" fill="#fff"/><circle cx="432" cy="478" r="8" fill="#fff"/><ellipse cx="612" cy="455" rx="66" ry="76" fill="#fff" stroke="#1f2a33" stroke-width="8"/><ellipse cx="612" cy="463" rx="41" ry="51" fill="#4a3a28"/><ellipse cx="612" cy="473" rx="28" ry="33" fill="#1f2a33"/><circle cx="596" cy="438" r="17" fill="#fff"/><circle cx="632" cy="478" r="8" fill="#fff"/><ellipse cx="372" cy="545" rx="34" ry="18" fill="#f4a1a8" opacity=".8"/><ellipse cx="652" cy="545" rx="34" ry="18" fill="#f4a1a8" opacity=".8"/><path d="M290 700 h120 l-14 110 h-92z" fill="#3f6e6a" stroke="#1f2a33" stroke-width="6"/><path d="M290 700 q60 -80 120 0" fill="none" stroke="#1f2a33" stroke-width="8"/><path d="M300 720 h100" stroke="#fff" stroke-width="6" opacity=".6"/><text x="512" y="940" text-anchor="middle" font-family="Hiragino Sans, Hiragino Kaku Gothic ProN, Noto Sans JP, sans-serif" font-size="64" font-weight="700" fill="#1f2a33">シギ</text><text x="512" y="998" text-anchor="middle" font-family="Futura, Avenir Next, Helvetica Neue, sans-serif" font-size="30" letter-spacing="6" fill="#1f2a33" opacity=".8">SANDPIPER · Heron's little one</text></svg>