<svg xmlns="http://www.w3.org/2000/svg" viewBox="0 0 512 512" width="512" height="512">
<circle cx="256" cy="256" r="236" fill="#f1e3c3" stroke="#1f3a3a" stroke-width="14"/>
<circle cx="256" cy="256" r="252" fill="none" stroke="#f1e3c3" stroke-width="8" opacity=".9"/>
<path d="M256 200 L386 200" stroke="#1f3a3a" stroke-width="8" stroke-linejoin="round" stroke-linecap="round"/><path d="M256 200 L368 136" stroke="#1f3a3a" stroke-width="8" stroke-linejoin="round" stroke-linecap="round"/><path d="M256 200 L321 88" stroke="#1f3a3a" stroke-width="8" stroke-linejoin="round" stroke-linecap="round"/><path d="M256 200 L256 70" stroke="#1f3a3a" stroke-width="8" stroke-linejoin="round" stroke-linecap="round"/><path d="M256 200 L192 88" stroke="#1f3a3a" stroke-width="8" stroke-linejoin="round" stroke-linecap="round"/><path d="M256 200 L144 136" stroke="#1f3a3a" stroke-width="8" stroke-linejoin="round" stroke-linecap="round"/><path d="M256 200 L126 200" stroke="#1f3a3a" stroke-width="8" stroke-linejoin="round" stroke-linecap="round"/><path d="M256 200 L144 265" stroke="#1f3a3a" stroke-width="8" stroke-linejoin="round" stroke-linecap="round"/><path d="M256 200 L191 312" stroke="#1f3a3a" stroke-width="8" stroke-linejoin="round" stroke-linecap="round"/><path d="M256 200 L256 330" stroke="#1f3a3a" stroke-width="8" stroke-linejoin="round" stroke-linecap="round"/><path d="M256 200 L321 312" stroke="#1f3a3a" stroke-width="8" stroke-linejoin="round" stroke-linecap="round"/><path d="M256 200 L368 265" stroke="#1f3a3a" stroke-width="8" stroke-linejoin="round" stroke-linecap="round"/><circle cx="386" cy="200" r="12" fill="#3f6e6a"/><circle cx="368" cy="136" r="12" fill="#3f6e6a"/><circle cx="321" cy="88" r="12" fill="#3f6e6a"/><circle cx="256" cy="70" r="12" fill="#3f6e6a"/><circle cx="192" cy="88" r="12" fill="#3f6e6a"/><circle cx="144" cy="136" r="12" fill="#3f6e6a"/><circle cx="126" cy="200" r="12" fill="#3f6e6a"/><circle cx="144" cy="265" r="12" fill="#3f6e6a"/><circle cx="191" cy="312" r="12" fill="#3f6e6a"/><circle cx="256" cy="330" r="12" fill="#3f6e6a"/><circle cx="321" cy="312" r="12" fill="#3f6e6a"/><circle cx="368" cy="265" r="12" fill="#3f6e6a"/><circle cx="256" cy="200" r="34" fill="#d94a3d"/><path d="M256 340 q-20 40 0 80" fill="none" stroke="#1f3a3a" stroke-width="8" stroke-linejoin="round" stroke-linecap="round" stroke-dasharray="14 12"/>
</svg>
