<svg xmlns="http://www.w3.org/2000/svg" viewBox="0 0 1024 1024" width="1024" height="1024"><rect width="1024" height="1024" fill="#16213e"/><path d="M552 200 L972 200 L963 290 L551 208 Z" fill="#3c4a58" opacity="0.8"/><path d="M540 228 L837 525 L768 582 L534 233 Z" fill="#3c4a58" opacity="0.8"/><path d="M512 240 L512 660 L422 651 L504 239 Z" fill="#3c4a58" opacity="0.8"/><path d="M484 228 L187 525 L130 456 L479 222 Z" fill="#3c4a58" opacity="0.8"/><path d="M472 200 L52 200 L61 110 L473 192 Z" fill="#3c4a58" opacity="0.8"/><path d="M484 172 L187 -125 L256 -182 L490 167 Z" fill="#3c4a58" opacity="0.8"/><path d="M512 160 L512 -260 L602 -251 L520 161 Z" fill="#3c4a58" opacity="0.8"/><path d="M540 172 L837 -125 L894 -56 L545 178 Z" fill="#3c4a58" opacity="0.8"/><circle cx="512" cy="200" r="140" fill="#f0e6a8"/><g transform="translate(512 560) scale(1.05) translate(-512 -470)"><path d="M420 700 q92 -60 184 0 q30 100 -92 130 q-122 -30 -92 -130z" fill="#c9d2d8" stroke="#0f1830" stroke-width="9.5"/><path d="M470 760 q42 -30 84 0 q0 60 -42 62 q-42 -2 -42 -62z" fill="#16213e"/><path d="M600 780 q60 -20 80 20 q-30 6 -50 -4 q-6 24 -30 26z" fill="#c9d2d8" stroke="#0f1830" stroke-width="9.5"/><circle cx="512" cy="470" r="250" fill="#c9d2d8" stroke="#0f1830" stroke-width="9.5"/><path d="M512 240 q-40 -110 -20 -160 q70 60 80 160z" fill="#c9d2d8" stroke="#0f1830" stroke-width="9.5"/><path d="M300 520 q60 190 212 190 q152 0 212 -190 q-60 -60 -212 -60 q-152 0 -212 60z" fill="#16213e"/><ellipse cx="392" cy="360" rx="56" ry="70" fill="#16213e" transform="rotate(-20 392 360)"/><ellipse cx="632" cy="360" rx="56" ry="70" fill="#16213e" transform="rotate(20 632 360)"/><ellipse cx="402" cy="470" rx="62" ry="71" fill="#16213e" stroke="#141414" stroke-width="8"/><ellipse cx="408" cy="478" rx="38" ry="48" fill="#f0e6a8"/><ellipse cx="408" cy="488" rx="26" ry="31" fill="#141414"/><circle cx="392" cy="454" r="16" fill="#16213e"/><ellipse cx="622" cy="470" rx="62" ry="71" fill="#16213e" stroke="#141414" stroke-width="8"/><ellipse cx="628" cy="478" rx="38" ry="48" fill="#f0e6a8"/><ellipse cx="628" cy="488" rx="26" ry="31" fill="#141414"/><circle cx="612" cy="454" r="16" fill="#16213e"/></g></svg>