<svg xmlns="http://www.w3.org/2000/svg" viewBox="0 0 1024 1024" width="1024" height="1024"><rect width="1024" height="1024" fill="#e8dcc4"/><defs><pattern id="bd" width="34" height="34" patternUnits="userSpaceOnUse"><circle cx="17.0" cy="17.0" r="3" fill="#c9a227" opacity="0.85"/></pattern></defs><rect width="1024" height="1024" fill="url(#bd)"/><path d="M552 512 1332 512 1322 640 552 518 Z" fill="#f2ebdc" opacity="0.12"/><path d="M544 536 1175 994 1092 1092 540 540 Z" fill="#f2ebdc" opacity="0.12"/><path d="M524 550 765 1292 640 1322 518 552 Z" fill="#f2ebdc" opacity="0.12"/><path d="M500 550 259 1292 140 1243 494 548 Z" fill="#f2ebdc" opacity="0.12"/><path d="M480 536 -151 994 -219 884 476 530 Z" fill="#f2ebdc" opacity="0.12"/><path d="M472 512 -308 512 -298 384 472 506 Z" fill="#f2ebdc" opacity="0.12"/><path d="M480 488 -151 30 -68 -68 484 484 Z" fill="#f2ebdc" opacity="0.12"/><path d="M500 474 259 -268 384 -298 506 472 Z" fill="#f2ebdc" opacity="0.12"/><path d="M524 474 765 -268 884 -219 530 476 Z" fill="#f2ebdc" opacity="0.12"/><path d="M544 488 1175 30 1243 140 548 494 Z" fill="#f2ebdc" opacity="0.12"/><path d="M-20 780 Q512 306 1044 300" stroke="#141414" stroke-width="26" fill="none" stroke-linecap="round"/><path d="M-20 940 Q340 632 700 640" stroke="#141414" stroke-width="16" fill="none" stroke-linecap="round"/><path d="M967 274 Q946 238 967 215 Q967 224 967 238 Q988 238 967 274 Z" fill="#f2c9cf" stroke="#141414" stroke-width="2.9" stroke-linejoin="round"/><path d="M967 274 Q995 243 1023 256 Q1014 259 1001 263 Q1008 283 967 274 Z" fill="#f2c9cf" stroke="#141414" stroke-width="2.9" stroke-linejoin="round"/><path d="M967 274 Q1005 291 1002 322 Q996 314 988 303 Q972 316 967 274 Z" fill="#f2c9cf" stroke="#141414" stroke-width="2.9" stroke-linejoin="round"/><path d="M967 274 Q962 316 932 322 Q938 314 946 303 Q929 291 967 274 Z" fill="#f2c9cf" stroke="#141414" stroke-width="2.9" stroke-linejoin="round"/><path d="M967 274 Q926 283 911 256 Q920 259 933 263 Q939 243 967 274 Z" fill="#f2c9cf" stroke="#141414" stroke-width="2.9" stroke-linejoin="round"/><line x1="967" y1="274" x2="991" y2="274" stroke="#e0472c" stroke-width="2.6" stroke-linecap="round"/><line x1="967" y1="274" x2="982" y2="293" stroke="#e0472c" stroke-width="2.6" stroke-linecap="round"/><line x1="967" y1="274" x2="962" y2="298" stroke="#e0472c" stroke-width="2.6" stroke-linecap="round"/><line x1="967" y1="274" x2="945" y2="285" stroke="#e0472c" stroke-width="2.6" stroke-linecap="round"/><line x1="967" y1="274" x2="945" y2="263" stroke="#e0472c" stroke-width="2.6" stroke-linecap="round"/><line x1="967" y1="274" x2="962" y2="250" stroke="#e0472c" stroke-width="2.6" stroke-linecap="round"/><line x1="967" y1="274" x2="982" y2="255" stroke="#e0472c" stroke-width="2.6" stroke-linecap="round"/><circle cx="967" cy="274" r="7.0" fill="#e0472c"/><path d="M730 770 Q714 741 730 723 Q730 730 730 741 Q746 741 730 770 Z" fill="#f2c9cf" stroke="#141414" stroke-width="2.3" stroke-linejoin="round"/><path d="M730 770 Q752 745 775 756 Q768 758 757 761 Q762 777 730 770 Z" fill="#f2c9cf" stroke="#141414" stroke-width="2.3" stroke-linejoin="round"/><path d="M730 770 Q760 784 758 808 Q753 802 747 793 Q734 803 730 770 Z" fill="#f2c9cf" stroke="#141414" stroke-width="2.3" stroke-linejoin="round"/><path d="M730 770 Q726 803 702 808 Q707 802 713 793 Q700 784 730 770 Z" fill="#f2c9cf" stroke="#141414" stroke-width="2.3" stroke-linejoin="round"/><path d="M730 770 Q698 777 685 756 Q692 758 703 761 Q708 745 730 770 Z" fill="#f2c9cf" stroke="#141414" stroke-width="2.3" stroke-linejoin="round"/><line x1="730" y1="770" x2="749" y2="770" stroke="#e0472c" stroke-width="2.1" stroke-linecap="round"/><line x1="730" y1="770" x2="742" y2="785" stroke="#e0472c" stroke-width="2.1" stroke-linecap="round"/><line x1="730" y1="770" x2="726" y2="789" stroke="#e0472c" stroke-width="2.1" stroke-linecap="round"/><line x1="730" y1="770" x2="713" y2="778" stroke="#e0472c" stroke-width="2.1" stroke-linecap="round"/><line x1="730" y1="770" x2="713" y2="762" stroke="#e0472c" stroke-width="2.1" stroke-linecap="round"/><line x1="730" y1="770" x2="726" y2="751" stroke="#e0472c" stroke-width="2.1" stroke-linecap="round"/><line x1="730" y1="770" x2="742" y2="755" stroke="#e0472c" stroke-width="2.1" stroke-linecap="round"/><circle cx="730" cy="770" r="5.5" fill="#e0472c"/><path d="M933 455 Q907 410 933 382 Q933 393 933 410 Q959 410 933 455 Z" fill="#f2c9cf" stroke="#141414" stroke-width="3.6" stroke-linejoin="round"/><path d="M933 455 Q968 417 1003 432 Q992 436 975 441 Q984 466 933 455 Z" fill="#f2c9cf" stroke="#141414" stroke-width="3.6" stroke-linejoin="round"/><path d="M933 455 Q980 476 976 514 Q969 505 959 491 Q939 507 933 455 Z" fill="#f2c9cf" stroke="#141414" stroke-width="3.6" stroke-linejoin="round"/><path d="M933 455 Q927 507 890 514 Q897 505 907 491 Q886 476 933 455 Z" fill="#f2c9cf" stroke="#141414" stroke-width="3.6" stroke-linejoin="round"/><path d="M933 455 Q882 466 863 432 Q874 436 891 441 Q898 417 933 455 Z" fill="#f2c9cf" stroke="#141414" stroke-width="3.6" stroke-linejoin="round"/><line x1="933" y1="455" x2="963" y2="455" stroke="#e0472c" stroke-width="3.2" stroke-linecap="round"/><line x1="933" y1="455" x2="952" y2="479" stroke="#e0472c" stroke-width="3.2" stroke-linecap="round"/><line x1="933" y1="455" x2="926" y2="484" stroke="#e0472c" stroke-width="3.2" stroke-linecap="round"/><line x1="933" y1="455" x2="906" y2="468" stroke="#e0472c" stroke-width="3.2" stroke-linecap="round"/><line x1="933" y1="455" x2="906" y2="442" stroke="#e0472c" stroke-width="3.2" stroke-linecap="round"/><line x1="933" y1="455" x2="926" y2="426" stroke="#e0472c" stroke-width="3.2" stroke-linecap="round"/><line x1="933" y1="455" x2="952" y2="431" stroke="#e0472c" stroke-width="3.2" stroke-linecap="round"/><circle cx="933" cy="455" r="8.6" fill="#e0472c"/><path d="M967 293 Q951 264 967 246 Q967 253 967 264 Q983 264 967 293 Z" fill="#f2c9cf" stroke="#141414" stroke-width="2.3" stroke-linejoin="round"/><path d="M967 293 Q989 268 1012 279 Q1005 281 994 284 Q999 300 967 293 Z" fill="#f2c9cf" stroke="#141414" stroke-width="2.3" stroke-linejoin="round"/><path d="M967 293 Q997 307 995 331 Q990 325 984 316 Q971 326 967 293 Z" fill="#f2c9cf" stroke="#141414" stroke-width="2.3" stroke-linejoin="round"/><path d="M967 293 Q963 326 939 331 Q944 325 950 316 Q937 307 967 293 Z" fill="#f2c9cf" stroke="#141414" stroke-width="2.3" stroke-linejoin="round"/><path d="M967 293 Q935 300 922 279 Q929 281 940 284 Q945 268 967 293 Z" fill="#f2c9cf" stroke="#141414" stroke-width="2.3" stroke-linejoin="round"/><line x1="967" y1="293" x2="986" y2="293" stroke="#e0472c" stroke-width="2.1" stroke-linecap="round"/><line x1="967" y1="293" x2="979" y2="308" stroke="#e0472c" stroke-width="2.1" stroke-linecap="round"/><line x1="967" y1="293" x2="963" y2="312" stroke="#e0472c" stroke-width="2.1" stroke-linecap="round"/><line x1="967" y1="293" x2="950" y2="301" stroke="#e0472c" stroke-width="2.1" stroke-linecap="round"/><line x1="967" y1="293" x2="950" y2="285" stroke="#e0472c" stroke-width="2.1" stroke-linecap="round"/><line x1="967" y1="293" x2="963" y2="274" stroke="#e0472c" stroke-width="2.1" stroke-linecap="round"/><line x1="967" y1="293" x2="979" y2="278" stroke="#e0472c" stroke-width="2.1" stroke-linecap="round"/><circle cx="967" cy="293" r="5.5" fill="#e0472c"/><path d="M461 536 Q445 507 461 489 Q461 496 461 507 Q477 507 461 536 Z" fill="#f2c9cf" stroke="#141414" stroke-width="2.3" stroke-linejoin="round"/><path d="M461 536 Q483 511 506 522 Q499 524 488 527 Q493 543 461 536 Z" fill="#f2c9cf" stroke="#141414" stroke-width="2.3" stroke-linejoin="round"/><path d="M461 536 Q491 550 489 574 Q484 568 478 559 Q465 569 461 536 Z" fill="#f2c9cf" stroke="#141414" stroke-width="2.3" stroke-linejoin="round"/><path d="M461 536 Q457 569 433 574 Q438 568 444 559 Q431 550 461 536 Z" fill="#f2c9cf" stroke="#141414" stroke-width="2.3" stroke-linejoin="round"/><path d="M461 536 Q429 543 416 522 Q423 524 434 527 Q439 511 461 536 Z" fill="#f2c9cf" stroke="#141414" stroke-width="2.3" stroke-linejoin="round"/><line x1="461" y1="536" x2="480" y2="536" stroke="#e0472c" stroke-width="2.1" stroke-linecap="round"/><line x1="461" y1="536" x2="473" y2="551" stroke="#e0472c" stroke-width="2.1" stroke-linecap="round"/><line x1="461" y1="536" x2="457" y2="555" stroke="#e0472c" stroke-width="2.1" stroke-linecap="round"/><line x1="461" y1="536" x2="444" y2="544" stroke="#e0472c" stroke-width="2.1" stroke-linecap="round"/><line x1="461" y1="536" x2="444" y2="528" stroke="#e0472c" stroke-width="2.1" stroke-linecap="round"/><line x1="461" y1="536" x2="457" y2="517" stroke="#e0472c" stroke-width="2.1" stroke-linecap="round"/><line x1="461" y1="536" x2="473" y2="521" stroke="#e0472c" stroke-width="2.1" stroke-linecap="round"/><circle cx="461" cy="536" r="5.5" fill="#e0472c"/><path d="M145 248 Q124 212 145 189 Q145 198 145 212 Q166 212 145 248 Z" fill="#f2c9cf" stroke="#141414" stroke-width="2.9" stroke-linejoin="round"/><path d="M145 248 Q173 217 201 230 Q192 233 179 237 Q186 257 145 248 Z" fill="#f2c9cf" stroke="#141414" stroke-width="2.9" stroke-linejoin="round"/><path d="M145 248 Q183 265 180 296 Q174 288 166 277 Q150 290 145 248 Z" fill="#f2c9cf" stroke="#141414" stroke-width="2.9" stroke-linejoin="round"/><path d="M145 248 Q140 290 110 296 Q116 288 124 277 Q107 265 145 248 Z" fill="#f2c9cf" stroke="#141414" stroke-width="2.9" stroke-linejoin="round"/><path d="M145 248 Q104 257 89 230 Q98 233 111 237 Q117 217 145 248 Z" fill="#f2c9cf" stroke="#141414" stroke-width="2.9" stroke-linejoin="round"/><line x1="145" y1="248" x2="169" y2="248" stroke="#e0472c" stroke-width="2.6" stroke-linecap="round"/><line x1="145" y1="248" x2="160" y2="267" stroke="#e0472c" stroke-width="2.6" stroke-linecap="round"/><line x1="145" y1="248" x2="140" y2="272" stroke="#e0472c" stroke-width="2.6" stroke-linecap="round"/><line x1="145" y1="248" x2="123" y2="259" stroke="#e0472c" stroke-width="2.6" stroke-linecap="round"/><line x1="145" y1="248" x2="123" y2="237" stroke="#e0472c" stroke-width="2.6" stroke-linecap="round"/><line x1="145" y1="248" x2="140" y2="224" stroke="#e0472c" stroke-width="2.6" stroke-linecap="round"/><line x1="145" y1="248" x2="160" y2="229" stroke="#e0472c" stroke-width="2.6" stroke-linecap="round"/><circle cx="145" cy="248" r="7.0" fill="#e0472c"/><path d="M525 714 Q504 678 525 655 Q525 664 525 678 Q546 678 525 714 Z" fill="#f2c9cf" stroke="#141414" stroke-width="2.9" stroke-linejoin="round"/><path d="M525 714 Q553 683 581 696 Q572 699 559 703 Q566 723 525 714 Z" fill="#f2c9cf" stroke="#141414" stroke-width="2.9" stroke-linejoin="round"/><path d="M525 714 Q563 731 560 762 Q554 754 546 743 Q530 756 525 714 Z" fill="#f2c9cf" stroke="#141414" stroke-width="2.9" stroke-linejoin="round"/><path d="M525 714 Q520 756 490 762 Q496 754 504 743 Q487 731 525 714 Z" fill="#f2c9cf" stroke="#141414" stroke-width="2.9" stroke-linejoin="round"/><path d="M525 714 Q484 723 469 696 Q478 699 491 703 Q497 683 525 714 Z" fill="#f2c9cf" stroke="#141414" stroke-width="2.9" stroke-linejoin="round"/><line x1="525" y1="714" x2="549" y2="714" stroke="#e0472c" stroke-width="2.6" stroke-linecap="round"/><line x1="525" y1="714" x2="540" y2="733" stroke="#e0472c" stroke-width="2.6" stroke-linecap="round"/><line x1="525" y1="714" x2="520" y2="738" stroke="#e0472c" stroke-width="2.6" stroke-linecap="round"/><line x1="525" y1="714" x2="503" y2="725" stroke="#e0472c" stroke-width="2.6" stroke-linecap="round"/><line x1="525" y1="714" x2="503" y2="703" stroke="#e0472c" stroke-width="2.6" stroke-linecap="round"/><line x1="525" y1="714" x2="520" y2="690" stroke="#e0472c" stroke-width="2.6" stroke-linecap="round"/><line x1="525" y1="714" x2="540" y2="695" stroke="#e0472c" stroke-width="2.6" stroke-linecap="round"/><circle cx="525" cy="714" r="7.0" fill="#e0472c"/><path d="M461 333 Q445 304 461 286 Q461 293 461 304 Q477 304 461 333 Z" fill="#f2c9cf" stroke="#141414" stroke-width="2.3" stroke-linejoin="round"/><path d="M461 333 Q483 308 506 319 Q499 321 488 324 Q493 340 461 333 Z" fill="#f2c9cf" stroke="#141414" stroke-width="2.3" stroke-linejoin="round"/><path d="M461 333 Q491 347 489 371 Q484 365 478 356 Q465 366 461 333 Z" fill="#f2c9cf" stroke="#141414" stroke-width="2.3" stroke-linejoin="round"/><path d="M461 333 Q457 366 433 371 Q438 365 444 356 Q431 347 461 333 Z" fill="#f2c9cf" stroke="#141414" stroke-width="2.3" stroke-linejoin="round"/><path d="M461 333 Q429 340 416 319 Q423 321 434 324 Q439 308 461 333 Z" fill="#f2c9cf" stroke="#141414" stroke-width="2.3" stroke-linejoin="round"/><line x1="461" y1="333" x2="480" y2="333" stroke="#e0472c" stroke-width="2.1" stroke-linecap="round"/><line x1="461" y1="333" x2="473" y2="348" stroke="#e0472c" stroke-width="2.1" stroke-linecap="round"/><line x1="461" y1="333" x2="457" y2="352" stroke="#e0472c" stroke-width="2.1" stroke-linecap="round"/><line x1="461" y1="333" x2="444" y2="341" stroke="#e0472c" stroke-width="2.1" stroke-linecap="round"/><line x1="461" y1="333" x2="444" y2="325" stroke="#e0472c" stroke-width="2.1" stroke-linecap="round"/><line x1="461" y1="333" x2="457" y2="314" stroke="#e0472c" stroke-width="2.1" stroke-linecap="round"/><line x1="461" y1="333" x2="473" y2="318" stroke="#e0472c" stroke-width="2.1" stroke-linecap="round"/><circle cx="461" cy="333" r="5.5" fill="#e0472c"/><path d="M364 760 Q338 715 364 687 Q364 698 364 715 Q390 715 364 760 Z" fill="#f2c9cf" stroke="#141414" stroke-width="3.6" stroke-linejoin="round"/><path d="M364 760 Q399 722 434 737 Q423 741 406 746 Q415 771 364 760 Z" fill="#f2c9cf" stroke="#141414" stroke-width="3.6" stroke-linejoin="round"/><path d="M364 760 Q411 781 407 819 Q400 810 390 796 Q370 812 364 760 Z" fill="#f2c9cf" stroke="#141414" stroke-width="3.6" stroke-linejoin="round"/><path d="M364 760 Q358 812 321 819 Q328 810 338 796 Q317 781 364 760 Z" fill="#f2c9cf" stroke="#141414" stroke-width="3.6" stroke-linejoin="round"/><path d="M364 760 Q313 771 294 737 Q305 741 322 746 Q329 722 364 760 Z" fill="#f2c9cf" stroke="#141414" stroke-width="3.6" stroke-linejoin="round"/><line x1="364" y1="760" x2="394" y2="760" stroke="#e0472c" stroke-width="3.2" stroke-linecap="round"/><line x1="364" y1="760" x2="383" y2="784" stroke="#e0472c" stroke-width="3.2" stroke-linecap="round"/><line x1="364" y1="760" x2="357" y2="789" stroke="#e0472c" stroke-width="3.2" stroke-linecap="round"/><line x1="364" y1="760" x2="337" y2="773" stroke="#e0472c" stroke-width="3.2" stroke-linecap="round"/><line x1="364" y1="760" x2="337" y2="747" stroke="#e0472c" stroke-width="3.2" stroke-linecap="round"/><line x1="364" y1="760" x2="357" y2="731" stroke="#e0472c" stroke-width="3.2" stroke-linecap="round"/><line x1="364" y1="760" x2="383" y2="736" stroke="#e0472c" stroke-width="3.2" stroke-linecap="round"/><circle cx="364" cy="760" r="8.6" fill="#e0472c"/><path d="M383 456 Q362 420 383 397 Q383 406 383 420 Q404 420 383 456 Z" fill="#f2c9cf" stroke="#141414" stroke-width="2.9" stroke-linejoin="round"/><path d="M383 456 Q411 425 439 438 Q430 441 417 445 Q424 465 383 456 Z" fill="#f2c9cf" stroke="#141414" stroke-width="2.9" stroke-linejoin="round"/><path d="M383 456 Q421 473 418 504 Q412 496 404 485 Q388 498 383 456 Z" fill="#f2c9cf" stroke="#141414" stroke-width="2.9" stroke-linejoin="round"/><path d="M383 456 Q378 498 348 504 Q354 496 362 485 Q345 473 383 456 Z" fill="#f2c9cf" stroke="#141414" stroke-width="2.9" stroke-linejoin="round"/><path d="M383 456 Q342 465 327 438 Q336 441 349 445 Q355 425 383 456 Z" fill="#f2c9cf" stroke="#141414" stroke-width="2.9" stroke-linejoin="round"/><line x1="383" y1="456" x2="407" y2="456" stroke="#e0472c" stroke-width="2.6" stroke-linecap="round"/><line x1="383" y1="456" x2="398" y2="475" stroke="#e0472c" stroke-width="2.6" stroke-linecap="round"/><line x1="383" y1="456" x2="378" y2="480" stroke="#e0472c" stroke-width="2.6" stroke-linecap="round"/><line x1="383" y1="456" x2="361" y2="467" stroke="#e0472c" stroke-width="2.6" stroke-linecap="round"/><line x1="383" y1="456" x2="361" y2="445" stroke="#e0472c" stroke-width="2.6" stroke-linecap="round"/><line x1="383" y1="456" x2="378" y2="432" stroke="#e0472c" stroke-width="2.6" stroke-linecap="round"/><line x1="383" y1="456" x2="398" y2="437" stroke="#e0472c" stroke-width="2.6" stroke-linecap="round"/><circle cx="383" cy="456" r="7.0" fill="#e0472c"/><path d="M134 762 Q108 717 134 689 Q134 700 134 717 Q160 717 134 762 Z" fill="#f2c9cf" stroke="#141414" stroke-width="3.6" stroke-linejoin="round"/><path d="M134 762 Q169 724 204 739 Q193 743 176 748 Q185 773 134 762 Z" fill="#f2c9cf" stroke="#141414" stroke-width="3.6" stroke-linejoin="round"/><path d="M134 762 Q181 783 177 821 Q170 812 160 798 Q140 814 134 762 Z" fill="#f2c9cf" stroke="#141414" stroke-width="3.6" stroke-linejoin="round"/><path d="M134 762 Q128 814 91 821 Q98 812 108 798 Q87 783 134 762 Z" fill="#f2c9cf" stroke="#141414" stroke-width="3.6" stroke-linejoin="round"/><path d="M134 762 Q83 773 64 739 Q75 743 92 748 Q99 724 134 762 Z" fill="#f2c9cf" stroke="#141414" stroke-width="3.6" stroke-linejoin="round"/><line x1="134" y1="762" x2="164" y2="762" stroke="#e0472c" stroke-width="3.2" stroke-linecap="round"/><line x1="134" y1="762" x2="153" y2="786" stroke="#e0472c" stroke-width="3.2" stroke-linecap="round"/><line x1="134" y1="762" x2="127" y2="791" stroke="#e0472c" stroke-width="3.2" stroke-linecap="round"/><line x1="134" y1="762" x2="107" y2="775" stroke="#e0472c" stroke-width="3.2" stroke-linecap="round"/><line x1="134" y1="762" x2="107" y2="749" stroke="#e0472c" stroke-width="3.2" stroke-linecap="round"/><line x1="134" y1="762" x2="127" y2="733" stroke="#e0472c" stroke-width="3.2" stroke-linecap="round"/><line x1="134" y1="762" x2="153" y2="738" stroke="#e0472c" stroke-width="3.2" stroke-linecap="round"/><circle cx="134" cy="762" r="8.6" fill="#e0472c"/><path d="M864 623 Q843 587 864 564 Q864 573 864 587 Q885 587 864 623 Z" fill="#f2c9cf" stroke="#141414" stroke-width="2.9" stroke-linejoin="round"/><path d="M864 623 Q892 592 920 605 Q911 608 898 612 Q905 632 864 623 Z" fill="#f2c9cf" stroke="#141414" stroke-width="2.9" stroke-linejoin="round"/><path d="M864 623 Q902 640 899 671 Q893 663 885 652 Q869 665 864 623 Z" fill="#f2c9cf" stroke="#141414" stroke-width="2.9" stroke-linejoin="round"/><path d="M864 623 Q859 665 829 671 Q835 663 843 652 Q826 640 864 623 Z" fill="#f2c9cf" stroke="#141414" stroke-width="2.9" stroke-linejoin="round"/><path d="M864 623 Q823 632 808 605 Q817 608 830 612 Q836 592 864 623 Z" fill="#f2c9cf" stroke="#141414" stroke-width="2.9" stroke-linejoin="round"/><line x1="864" y1="623" x2="888" y2="623" stroke="#e0472c" stroke-width="2.6" stroke-linecap="round"/><line x1="864" y1="623" x2="879" y2="642" stroke="#e0472c" stroke-width="2.6" stroke-linecap="round"/><line x1="864" y1="623" x2="859" y2="647" stroke="#e0472c" stroke-width="2.6" stroke-linecap="round"/><line x1="864" y1="623" x2="842" y2="634" stroke="#e0472c" stroke-width="2.6" stroke-linecap="round"/><line x1="864" y1="623" x2="842" y2="612" stroke="#e0472c" stroke-width="2.6" stroke-linecap="round"/><line x1="864" y1="623" x2="859" y2="599" stroke="#e0472c" stroke-width="2.6" stroke-linecap="round"/><line x1="864" y1="623" x2="879" y2="604" stroke="#e0472c" stroke-width="2.6" stroke-linecap="round"/><circle cx="864" cy="623" r="7.0" fill="#e0472c"/><path d="M123 331 Q97 286 123 258 Q123 269 123 286 Q149 286 123 331 Z" fill="#f2c9cf" stroke="#141414" stroke-width="3.6" stroke-linejoin="round"/><path d="M123 331 Q158 293 193 308 Q182 312 165 317 Q174 342 123 331 Z" fill="#f2c9cf" stroke="#141414" stroke-width="3.6" stroke-linejoin="round"/><path d="M123 331 Q170 352 166 390 Q159 381 149 367 Q129 383 123 331 Z" fill="#f2c9cf" stroke="#141414" stroke-width="3.6" stroke-linejoin="round"/><path d="M123 331 Q117 383 80 390 Q87 381 97 367 Q76 352 123 331 Z" fill="#f2c9cf" stroke="#141414" stroke-width="3.6" stroke-linejoin="round"/><path d="M123 331 Q72 342 53 308 Q64 312 81 317 Q88 293 123 331 Z" fill="#f2c9cf" stroke="#141414" stroke-width="3.6" stroke-linejoin="round"/><line x1="123" y1="331" x2="153" y2="331" stroke="#e0472c" stroke-width="3.2" stroke-linecap="round"/><line x1="123" y1="331" x2="142" y2="355" stroke="#e0472c" stroke-width="3.2" stroke-linecap="round"/><line x1="123" y1="331" x2="116" y2="360" stroke="#e0472c" stroke-width="3.2" stroke-linecap="round"/><line x1="123" y1="331" x2="96" y2="344" stroke="#e0472c" stroke-width="3.2" stroke-linecap="round"/><line x1="123" y1="331" x2="96" y2="318" stroke="#e0472c" stroke-width="3.2" stroke-linecap="round"/><line x1="123" y1="331" x2="116" y2="302" stroke="#e0472c" stroke-width="3.2" stroke-linecap="round"/><line x1="123" y1="331" x2="142" y2="307" stroke="#e0472c" stroke-width="3.2" stroke-linecap="round"/><circle cx="123" cy="331" r="8.6" fill="#e0472c"/><path d="M288 155 Q272 126 288 108 Q288 115 288 126 Q304 126 288 155 Z" fill="#f2c9cf" stroke="#141414" stroke-width="2.3" stroke-linejoin="round"/><path d="M288 155 Q310 130 333 141 Q326 143 315 146 Q320 162 288 155 Z" fill="#f2c9cf" stroke="#141414" stroke-width="2.3" stroke-linejoin="round"/><path d="M288 155 Q318 169 316 193 Q311 187 305 178 Q292 188 288 155 Z" fill="#f2c9cf" stroke="#141414" stroke-width="2.3" stroke-linejoin="round"/><path d="M288 155 Q284 188 260 193 Q265 187 271 178 Q258 169 288 155 Z" fill="#f2c9cf" stroke="#141414" stroke-width="2.3" stroke-linejoin="round"/><path d="M288 155 Q256 162 243 141 Q250 143 261 146 Q266 130 288 155 Z" fill="#f2c9cf" stroke="#141414" stroke-width="2.3" stroke-linejoin="round"/><line x1="288" y1="155" x2="307" y2="155" stroke="#e0472c" stroke-width="2.1" stroke-linecap="round"/><line x1="288" y1="155" x2="300" y2="170" stroke="#e0472c" stroke-width="2.1" stroke-linecap="round"/><line x1="288" y1="155" x2="284" y2="174" stroke="#e0472c" stroke-width="2.1" stroke-linecap="round"/><line x1="288" y1="155" x2="271" y2="163" stroke="#e0472c" stroke-width="2.1" stroke-linecap="round"/><line x1="288" y1="155" x2="271" y2="147" stroke="#e0472c" stroke-width="2.1" stroke-linecap="round"/><line x1="288" y1="155" x2="284" y2="136" stroke="#e0472c" stroke-width="2.1" stroke-linecap="round"/><line x1="288" y1="155" x2="300" y2="140" stroke="#e0472c" stroke-width="2.1" stroke-linecap="round"/><circle cx="288" cy="155" r="5.5" fill="#e0472c"/><path d="M136 205 Q120 176 136 158 Q136 165 136 176 Q152 176 136 205 Z" fill="#f2c9cf" stroke="#141414" stroke-width="2.3" stroke-linejoin="round"/><path d="M136 205 Q158 180 181 191 Q174 193 163 196 Q168 212 136 205 Z" fill="#f2c9cf" stroke="#141414" stroke-width="2.3" stroke-linejoin="round"/><path d="M136 205 Q166 219 164 243 Q159 237 153 228 Q140 238 136 205 Z" fill="#f2c9cf" stroke="#141414" stroke-width="2.3" stroke-linejoin="round"/><path d="M136 205 Q132 238 108 243 Q113 237 119 228 Q106 219 136 205 Z" fill="#f2c9cf" stroke="#141414" stroke-width="2.3" stroke-linejoin="round"/><path d="M136 205 Q104 212 91 191 Q98 193 109 196 Q114 180 136 205 Z" fill="#f2c9cf" stroke="#141414" stroke-width="2.3" stroke-linejoin="round"/><line x1="136" y1="205" x2="155" y2="205" stroke="#e0472c" stroke-width="2.1" stroke-linecap="round"/><line x1="136" y1="205" x2="148" y2="220" stroke="#e0472c" stroke-width="2.1" stroke-linecap="round"/><line x1="136" y1="205" x2="132" y2="224" stroke="#e0472c" stroke-width="2.1" stroke-linecap="round"/><line x1="136" y1="205" x2="119" y2="213" stroke="#e0472c" stroke-width="2.1" stroke-linecap="round"/><line x1="136" y1="205" x2="119" y2="197" stroke="#e0472c" stroke-width="2.1" stroke-linecap="round"/><line x1="136" y1="205" x2="132" y2="186" stroke="#e0472c" stroke-width="2.1" stroke-linecap="round"/><line x1="136" y1="205" x2="148" y2="190" stroke="#e0472c" stroke-width="2.1" stroke-linecap="round"/><circle cx="136" cy="205" r="5.5" fill="#e0472c"/><path d="M299 410 Q278 374 299 351 Q299 360 299 374 Q320 374 299 410 Z" fill="#f2c9cf" stroke="#141414" stroke-width="2.9" stroke-linejoin="round"/><path d="M299 410 Q327 379 355 392 Q346 395 333 399 Q340 419 299 410 Z" fill="#f2c9cf" stroke="#141414" stroke-width="2.9" stroke-linejoin="round"/><path d="M299 410 Q337 427 334 458 Q328 450 320 439 Q304 452 299 410 Z" fill="#f2c9cf" stroke="#141414" stroke-width="2.9" stroke-linejoin="round"/><path d="M299 410 Q294 452 264 458 Q270 450 278 439 Q261 427 299 410 Z" fill="#f2c9cf" stroke="#141414" stroke-width="2.9" stroke-linejoin="round"/><path d="M299 410 Q258 419 243 392 Q252 395 265 399 Q271 379 299 410 Z" fill="#f2c9cf" stroke="#141414" stroke-width="2.9" stroke-linejoin="round"/><line x1="299" y1="410" x2="323" y2="410" stroke="#e0472c" stroke-width="2.6" stroke-linecap="round"/><line x1="299" y1="410" x2="314" y2="429" stroke="#e0472c" stroke-width="2.6" stroke-linecap="round"/><line x1="299" y1="410" x2="294" y2="434" stroke="#e0472c" stroke-width="2.6" stroke-linecap="round"/><line x1="299" y1="410" x2="277" y2="421" stroke="#e0472c" stroke-width="2.6" stroke-linecap="round"/><line x1="299" y1="410" x2="277" y2="399" stroke="#e0472c" stroke-width="2.6" stroke-linecap="round"/><line x1="299" y1="410" x2="294" y2="386" stroke="#e0472c" stroke-width="2.6" stroke-linecap="round"/><line x1="299" y1="410" x2="314" y2="391" stroke="#e0472c" stroke-width="2.6" stroke-linecap="round"/><circle cx="299" cy="410" r="7.0" fill="#e0472c"/><path d="M746 382 Q730 353 746 335 Q746 342 746 353 Q762 353 746 382 Z" fill="#f2c9cf" stroke="#141414" stroke-width="2.3" stroke-linejoin="round"/><path d="M746 382 Q768 357 791 368 Q784 370 773 373 Q778 389 746 382 Z" fill="#f2c9cf" stroke="#141414" stroke-width="2.3" stroke-linejoin="round"/><path d="M746 382 Q776 396 774 420 Q769 414 763 405 Q750 415 746 382 Z" fill="#f2c9cf" stroke="#141414" stroke-width="2.3" stroke-linejoin="round"/><path d="M746 382 Q742 415 718 420 Q723 414 729 405 Q716 396 746 382 Z" fill="#f2c9cf" stroke="#141414" stroke-width="2.3" stroke-linejoin="round"/><path d="M746 382 Q714 389 701 368 Q708 370 719 373 Q724 357 746 382 Z" fill="#f2c9cf" stroke="#141414" stroke-width="2.3" stroke-linejoin="round"/><line x1="746" y1="382" x2="765" y2="382" stroke="#e0472c" stroke-width="2.1" stroke-linecap="round"/><line x1="746" y1="382" x2="758" y2="397" stroke="#e0472c" stroke-width="2.1" stroke-linecap="round"/><line x1="746" y1="382" x2="742" y2="401" stroke="#e0472c" stroke-width="2.1" stroke-linecap="round"/><line x1="746" y1="382" x2="729" y2="390" stroke="#e0472c" stroke-width="2.1" stroke-linecap="round"/><line x1="746" y1="382" x2="729" y2="374" stroke="#e0472c" stroke-width="2.1" stroke-linecap="round"/><line x1="746" y1="382" x2="742" y2="363" stroke="#e0472c" stroke-width="2.1" stroke-linecap="round"/><line x1="746" y1="382" x2="758" y2="367" stroke="#e0472c" stroke-width="2.1" stroke-linecap="round"/><circle cx="746" cy="382" r="5.5" fill="#e0472c"/><path d="M678 240 Q662 211 678 193 Q678 200 678 211 Q694 211 678 240 Z" fill="#f2c9cf" stroke="#141414" stroke-width="2.3" stroke-linejoin="round"/><path d="M678 240 Q700 215 723 226 Q716 228 705 231 Q710 247 678 240 Z" fill="#f2c9cf" stroke="#141414" stroke-width="2.3" stroke-linejoin="round"/><path d="M678 240 Q708 254 706 278 Q701 272 695 263 Q682 273 678 240 Z" fill="#f2c9cf" stroke="#141414" stroke-width="2.3" stroke-linejoin="round"/><path d="M678 240 Q674 273 650 278 Q655 272 661 263 Q648 254 678 240 Z" fill="#f2c9cf" stroke="#141414" stroke-width="2.3" stroke-linejoin="round"/><path d="M678 240 Q646 247 633 226 Q640 228 651 231 Q656 215 678 240 Z" fill="#f2c9cf" stroke="#141414" stroke-width="2.3" stroke-linejoin="round"/><line x1="678" y1="240" x2="697" y2="240" stroke="#e0472c" stroke-width="2.1" stroke-linecap="round"/><line x1="678" y1="240" x2="690" y2="255" stroke="#e0472c" stroke-width="2.1" stroke-linecap="round"/><line x1="678" y1="240" x2="674" y2="259" stroke="#e0472c" stroke-width="2.1" stroke-linecap="round"/><line x1="678" y1="240" x2="661" y2="248" stroke="#e0472c" stroke-width="2.1" stroke-linecap="round"/><line x1="678" y1="240" x2="661" y2="232" stroke="#e0472c" stroke-width="2.1" stroke-linecap="round"/><line x1="678" y1="240" x2="674" y2="221" stroke="#e0472c" stroke-width="2.1" stroke-linecap="round"/><line x1="678" y1="240" x2="690" y2="225" stroke="#e0472c" stroke-width="2.1" stroke-linecap="round"/><circle cx="678" cy="240" r="5.5" fill="#e0472c"/><path d="M313 359 Q297 330 313 312 Q313 319 313 330 Q329 330 313 359 Z" fill="#f2c9cf" stroke="#141414" stroke-width="2.3" stroke-linejoin="round"/><path d="M313 359 Q335 334 358 345 Q351 347 340 350 Q345 366 313 359 Z" fill="#f2c9cf" stroke="#141414" stroke-width="2.3" stroke-linejoin="round"/><path d="M313 359 Q343 373 341 397 Q336 391 330 382 Q317 392 313 359 Z" fill="#f2c9cf" stroke="#141414" stroke-width="2.3" stroke-linejoin="round"/><path d="M313 359 Q309 392 285 397 Q290 391 296 382 Q283 373 313 359 Z" fill="#f2c9cf" stroke="#141414" stroke-width="2.3" stroke-linejoin="round"/><path d="M313 359 Q281 366 268 345 Q275 347 286 350 Q291 334 313 359 Z" fill="#f2c9cf" stroke="#141414" stroke-width="2.3" stroke-linejoin="round"/><line x1="313" y1="359" x2="332" y2="359" stroke="#e0472c" stroke-width="2.1" stroke-linecap="round"/><line x1="313" y1="359" x2="325" y2="374" stroke="#e0472c" stroke-width="2.1" stroke-linecap="round"/><line x1="313" y1="359" x2="309" y2="378" stroke="#e0472c" stroke-width="2.1" stroke-linecap="round"/><line x1="313" y1="359" x2="296" y2="367" stroke="#e0472c" stroke-width="2.1" stroke-linecap="round"/><line x1="313" y1="359" x2="296" y2="351" stroke="#e0472c" stroke-width="2.1" stroke-linecap="round"/><line x1="313" y1="359" x2="309" y2="340" stroke="#e0472c" stroke-width="2.1" stroke-linecap="round"/><line x1="313" y1="359" x2="325" y2="344" stroke="#e0472c" stroke-width="2.1" stroke-linecap="round"/><circle cx="313" cy="359" r="5.5" fill="#e0472c"/><path d="M627 363 Q611 334 627 316 Q627 323 627 334 Q643 334 627 363 Z" fill="#f2c9cf" stroke="#141414" stroke-width="2.3" stroke-linejoin="round"/><path d="M627 363 Q649 338 672 349 Q665 351 654 354 Q659 370 627 363 Z" fill="#f2c9cf" stroke="#141414" stroke-width="2.3" stroke-linejoin="round"/><path d="M627 363 Q657 377 655 401 Q650 395 644 386 Q631 396 627 363 Z" fill="#f2c9cf" stroke="#141414" stroke-width="2.3" stroke-linejoin="round"/><path d="M627 363 Q623 396 599 401 Q604 395 610 386 Q597 377 627 363 Z" fill="#f2c9cf" stroke="#141414" stroke-width="2.3" stroke-linejoin="round"/><path d="M627 363 Q595 370 582 349 Q589 351 600 354 Q605 338 627 363 Z" fill="#f2c9cf" stroke="#141414" stroke-width="2.3" stroke-linejoin="round"/><line x1="627" y1="363" x2="646" y2="363" stroke="#e0472c" stroke-width="2.1" stroke-linecap="round"/><line x1="627" y1="363" x2="639" y2="378" stroke="#e0472c" stroke-width="2.1" stroke-linecap="round"/><line x1="627" y1="363" x2="623" y2="382" stroke="#e0472c" stroke-width="2.1" stroke-linecap="round"/><line x1="627" y1="363" x2="610" y2="371" stroke="#e0472c" stroke-width="2.1" stroke-linecap="round"/><line x1="627" y1="363" x2="610" y2="355" stroke="#e0472c" stroke-width="2.1" stroke-linecap="round"/><line x1="627" y1="363" x2="623" y2="344" stroke="#e0472c" stroke-width="2.1" stroke-linecap="round"/><line x1="627" y1="363" x2="639" y2="348" stroke="#e0472c" stroke-width="2.1" stroke-linecap="round"/><circle cx="627" cy="363" r="5.5" fill="#e0472c"/><path d="M53 780 Q27 735 53 707 Q53 718 53 735 Q79 735 53 780 Z" fill="#f2c9cf" stroke="#141414" stroke-width="3.6" stroke-linejoin="round"/><path d="M53 780 Q88 742 123 757 Q112 761 95 766 Q104 791 53 780 Z" fill="#f2c9cf" stroke="#141414" stroke-width="3.6" stroke-linejoin="round"/><path d="M53 780 Q100 801 96 839 Q89 830 79 816 Q59 832 53 780 Z" fill="#f2c9cf" stroke="#141414" stroke-width="3.6" stroke-linejoin="round"/><path d="M53 780 Q47 832 10 839 Q17 830 27 816 Q6 801 53 780 Z" fill="#f2c9cf" stroke="#141414" stroke-width="3.6" stroke-linejoin="round"/><path d="M53 780 Q2 791 -17 757 Q-6 761 11 766 Q18 742 53 780 Z" fill="#f2c9cf" stroke="#141414" stroke-width="3.6" stroke-linejoin="round"/><line x1="53" y1="780" x2="83" y2="780" stroke="#e0472c" stroke-width="3.2" stroke-linecap="round"/><line x1="53" y1="780" x2="72" y2="804" stroke="#e0472c" stroke-width="3.2" stroke-linecap="round"/><line x1="53" y1="780" x2="46" y2="809" stroke="#e0472c" stroke-width="3.2" stroke-linecap="round"/><line x1="53" y1="780" x2="26" y2="793" stroke="#e0472c" stroke-width="3.2" stroke-linecap="round"/><line x1="53" y1="780" x2="26" y2="767" stroke="#e0472c" stroke-width="3.2" stroke-linecap="round"/><line x1="53" y1="780" x2="46" y2="751" stroke="#e0472c" stroke-width="3.2" stroke-linecap="round"/><line x1="53" y1="780" x2="72" y2="756" stroke="#e0472c" stroke-width="3.2" stroke-linecap="round"/><circle cx="53" cy="780" r="8.6" fill="#e0472c"/><path d="M347 406 Q331 377 347 359 Q347 366 347 377 Q363 377 347 406 Z" fill="#f2c9cf" stroke="#141414" stroke-width="2.3" stroke-linejoin="round"/><path d="M347 406 Q369 381 392 392 Q385 394 374 397 Q379 413 347 406 Z" fill="#f2c9cf" stroke="#141414" stroke-width="2.3" stroke-linejoin="round"/><path d="M347 406 Q377 420 375 444 Q370 438 364 429 Q351 439 347 406 Z" fill="#f2c9cf" stroke="#141414" stroke-width="2.3" stroke-linejoin="round"/><path d="M347 406 Q343 439 319 444 Q324 438 330 429 Q317 420 347 406 Z" fill="#f2c9cf" stroke="#141414" stroke-width="2.3" stroke-linejoin="round"/><path d="M347 406 Q315 413 302 392 Q309 394 320 397 Q325 381 347 406 Z" fill="#f2c9cf" stroke="#141414" stroke-width="2.3" stroke-linejoin="round"/><line x1="347" y1="406" x2="366" y2="406" stroke="#e0472c" stroke-width="2.1" stroke-linecap="round"/><line x1="347" y1="406" x2="359" y2="421" stroke="#e0472c" stroke-width="2.1" stroke-linecap="round"/><line x1="347" y1="406" x2="343" y2="425" stroke="#e0472c" stroke-width="2.1" stroke-linecap="round"/><line x1="347" y1="406" x2="330" y2="414" stroke="#e0472c" stroke-width="2.1" stroke-linecap="round"/><line x1="347" y1="406" x2="330" y2="398" stroke="#e0472c" stroke-width="2.1" stroke-linecap="round"/><line x1="347" y1="406" x2="343" y2="387" stroke="#e0472c" stroke-width="2.1" stroke-linecap="round"/><line x1="347" y1="406" x2="359" y2="391" stroke="#e0472c" stroke-width="2.1" stroke-linecap="round"/><circle cx="347" cy="406" r="5.5" fill="#e0472c"/><path d="M751 782 Q730 746 751 723 Q751 732 751 746 Q772 746 751 782 Z" fill="#f2c9cf" stroke="#141414" stroke-width="2.9" stroke-linejoin="round"/><path d="M751 782 Q779 751 807 764 Q798 767 785 771 Q792 791 751 782 Z" fill="#f2c9cf" stroke="#141414" stroke-width="2.9" stroke-linejoin="round"/><path d="M751 782 Q789 799 786 830 Q780 822 772 811 Q756 824 751 782 Z" fill="#f2c9cf" stroke="#141414" stroke-width="2.9" stroke-linejoin="round"/><path d="M751 782 Q746 824 716 830 Q722 822 730 811 Q713 799 751 782 Z" fill="#f2c9cf" stroke="#141414" stroke-width="2.9" stroke-linejoin="round"/><path d="M751 782 Q710 791 695 764 Q704 767 717 771 Q723 751 751 782 Z" fill="#f2c9cf" stroke="#141414" stroke-width="2.9" stroke-linejoin="round"/><line x1="751" y1="782" x2="775" y2="782" stroke="#e0472c" stroke-width="2.6" stroke-linecap="round"/><line x1="751" y1="782" x2="766" y2="801" stroke="#e0472c" stroke-width="2.6" stroke-linecap="round"/><line x1="751" y1="782" x2="746" y2="806" stroke="#e0472c" stroke-width="2.6" stroke-linecap="round"/><line x1="751" y1="782" x2="729" y2="793" stroke="#e0472c" stroke-width="2.6" stroke-linecap="round"/><line x1="751" y1="782" x2="729" y2="771" stroke="#e0472c" stroke-width="2.6" stroke-linecap="round"/><line x1="751" y1="782" x2="746" y2="758" stroke="#e0472c" stroke-width="2.6" stroke-linecap="round"/><line x1="751" y1="782" x2="766" y2="763" stroke="#e0472c" stroke-width="2.6" stroke-linecap="round"/><circle cx="751" cy="782" r="7.0" fill="#e0472c"/><path d="M654 578 Q638 549 654 531 Q654 538 654 549 Q670 549 654 578 Z" fill="#f2c9cf" stroke="#141414" stroke-width="2.3" stroke-linejoin="round"/><path d="M654 578 Q676 553 699 564 Q692 566 681 569 Q686 585 654 578 Z" fill="#f2c9cf" stroke="#141414" stroke-width="2.3" stroke-linejoin="round"/><path d="M654 578 Q684 592 682 616 Q677 610 671 601 Q658 611 654 578 Z" fill="#f2c9cf" stroke="#141414" stroke-width="2.3" stroke-linejoin="round"/><path d="M654 578 Q650 611 626 616 Q631 610 637 601 Q624 592 654 578 Z" fill="#f2c9cf" stroke="#141414" stroke-width="2.3" stroke-linejoin="round"/><path d="M654 578 Q622 585 609 564 Q616 566 627 569 Q632 553 654 578 Z" fill="#f2c9cf" stroke="#141414" stroke-width="2.3" stroke-linejoin="round"/><line x1="654" y1="578" x2="673" y2="578" stroke="#e0472c" stroke-width="2.1" stroke-linecap="round"/><line x1="654" y1="578" x2="666" y2="593" stroke="#e0472c" stroke-width="2.1" stroke-linecap="round"/><line x1="654" y1="578" x2="650" y2="597" stroke="#e0472c" stroke-width="2.1" stroke-linecap="round"/><line x1="654" y1="578" x2="637" y2="586" stroke="#e0472c" stroke-width="2.1" stroke-linecap="round"/><line x1="654" y1="578" x2="637" y2="570" stroke="#e0472c" stroke-width="2.1" stroke-linecap="round"/><line x1="654" y1="578" x2="650" y2="559" stroke="#e0472c" stroke-width="2.1" stroke-linecap="round"/><line x1="654" y1="578" x2="666" y2="563" stroke="#e0472c" stroke-width="2.1" stroke-linecap="round"/><circle cx="654" cy="578" r="5.5" fill="#e0472c"/><path d="M693 400 Q667 355 693 327 Q693 338 693 355 Q719 355 693 400 Z" fill="#f2c9cf" stroke="#141414" stroke-width="3.6" stroke-linejoin="round"/><path d="M693 400 Q728 362 763 377 Q752 381 735 386 Q744 411 693 400 Z" fill="#f2c9cf" stroke="#141414" stroke-width="3.6" stroke-linejoin="round"/><path d="M693 400 Q740 421 736 459 Q729 450 719 436 Q699 452 693 400 Z" fill="#f2c9cf" stroke="#141414" stroke-width="3.6" stroke-linejoin="round"/><path d="M693 400 Q687 452 650 459 Q657 450 667 436 Q646 421 693 400 Z" fill="#f2c9cf" stroke="#141414" stroke-width="3.6" stroke-linejoin="round"/><path d="M693 400 Q642 411 623 377 Q634 381 651 386 Q658 362 693 400 Z" fill="#f2c9cf" stroke="#141414" stroke-width="3.6" stroke-linejoin="round"/><line x1="693" y1="400" x2="723" y2="400" stroke="#e0472c" stroke-width="3.2" stroke-linecap="round"/><line x1="693" y1="400" x2="712" y2="424" stroke="#e0472c" stroke-width="3.2" stroke-linecap="round"/><line x1="693" y1="400" x2="686" y2="429" stroke="#e0472c" stroke-width="3.2" stroke-linecap="round"/><line x1="693" y1="400" x2="666" y2="413" stroke="#e0472c" stroke-width="3.2" stroke-linecap="round"/><line x1="693" y1="400" x2="666" y2="387" stroke="#e0472c" stroke-width="3.2" stroke-linecap="round"/><line x1="693" y1="400" x2="686" y2="371" stroke="#e0472c" stroke-width="3.2" stroke-linecap="round"/><line x1="693" y1="400" x2="712" y2="376" stroke="#e0472c" stroke-width="3.2" stroke-linecap="round"/><circle cx="693" cy="400" r="8.6" fill="#e0472c"/><path d="M892 563 Q876 534 892 516 Q892 523 892 534 Q908 534 892 563 Z" fill="#f2c9cf" stroke="#141414" stroke-width="2.3" stroke-linejoin="round"/><path d="M892 563 Q914 538 937 549 Q930 551 919 554 Q924 570 892 563 Z" fill="#f2c9cf" stroke="#141414" stroke-width="2.3" stroke-linejoin="round"/><path d="M892 563 Q922 577 920 601 Q915 595 909 586 Q896 596 892 563 Z" fill="#f2c9cf" stroke="#141414" stroke-width="2.3" stroke-linejoin="round"/><path d="M892 563 Q888 596 864 601 Q869 595 875 586 Q862 577 892 563 Z" fill="#f2c9cf" stroke="#141414" stroke-width="2.3" stroke-linejoin="round"/><path d="M892 563 Q860 570 847 549 Q854 551 865 554 Q870 538 892 563 Z" fill="#f2c9cf" stroke="#141414" stroke-width="2.3" stroke-linejoin="round"/><line x1="892" y1="563" x2="911" y2="563" stroke="#e0472c" stroke-width="2.1" stroke-linecap="round"/><line x1="892" y1="563" x2="904" y2="578" stroke="#e0472c" stroke-width="2.1" stroke-linecap="round"/><line x1="892" y1="563" x2="888" y2="582" stroke="#e0472c" stroke-width="2.1" stroke-linecap="round"/><line x1="892" y1="563" x2="875" y2="571" stroke="#e0472c" stroke-width="2.1" stroke-linecap="round"/><line x1="892" y1="563" x2="875" y2="555" stroke="#e0472c" stroke-width="2.1" stroke-linecap="round"/><line x1="892" y1="563" x2="888" y2="544" stroke="#e0472c" stroke-width="2.1" stroke-linecap="round"/><line x1="892" y1="563" x2="904" y2="548" stroke="#e0472c" stroke-width="2.1" stroke-linecap="round"/><circle cx="892" cy="563" r="5.5" fill="#e0472c"/><path d="M300 300 Q246 206 300 147 Q300 171 300 207 Q354 206 300 300 Z" fill="#f2c9cf" stroke="#141414" stroke-width="7.5" stroke-linejoin="round"/><path d="M300 300 Q373 220 446 253 Q423 260 388 271 Q406 322 300 300 Z" fill="#f2c9cf" stroke="#141414" stroke-width="7.5" stroke-linejoin="round"/><path d="M300 300 Q399 344 390 424 Q376 404 355 375 Q312 407 300 300 Z" fill="#f2c9cf" stroke="#141414" stroke-width="7.5" stroke-linejoin="round"/><path d="M300 300 Q288 407 210 424 Q224 404 245 375 Q201 344 300 300 Z" fill="#f2c9cf" stroke="#141414" stroke-width="7.5" stroke-linejoin="round"/><path d="M300 300 Q194 322 154 253 Q177 260 212 271 Q227 220 300 300 Z" fill="#f2c9cf" stroke="#141414" stroke-width="7.5" stroke-linejoin="round"/><line x1="300" y1="300" x2="363" y2="300" stroke="#e0472c" stroke-width="6.8" stroke-linecap="round"/><line x1="300" y1="300" x2="339" y2="349" stroke="#e0472c" stroke-width="6.8" stroke-linecap="round"/><line x1="300" y1="300" x2="286" y2="361" stroke="#e0472c" stroke-width="6.8" stroke-linecap="round"/><line x1="300" y1="300" x2="243" y2="327" stroke="#e0472c" stroke-width="6.8" stroke-linecap="round"/><line x1="300" y1="300" x2="243" y2="273" stroke="#e0472c" stroke-width="6.8" stroke-linecap="round"/><line x1="300" y1="300" x2="286" y2="239" stroke="#e0472c" stroke-width="6.8" stroke-linecap="round"/><line x1="300" y1="300" x2="339" y2="251" stroke="#e0472c" stroke-width="6.8" stroke-linecap="round"/><circle cx="300" cy="300" r="18.0" fill="#e0472c"/><g transform="translate(916 916)"><circle r="62" fill="#e0472c"/><text x="0" y="21" text-anchor="middle" font-family="Hiragino Mincho ProN, Noto Serif JP, serif" font-size="68" fill="#f4e8c8">山桜</text></g></svg>